<?xml version="1.0" encoding="UTF-8"?>
<svg version="1.1" xmlns="http://www.w3.org/2000/svg" width="343" height="335">
<path d="M0 0 C3.7626903 0.54967997 6.03933271 1.46708489 9.0625 3.75 C15.07643918 8.13365446 21.32516775 12.12310121 27.60375977 16.11621094 C34.82423107 20.75597341 42.21272104 25.59085467 48 32 C48.375 34.625 48.375 34.625 48 37 C47.01 37.99 47.01 37.99 46 39 C46.87140625 39.556875 47.7428125 40.11375 48.640625 40.6875 C51.79257694 42.70437533 54.93683532 44.73299083 58.07958984 46.76416016 C59.856277 47.90751006 61.64009025 49.0387587 63.42578125 50.16796875 C74.01134752 56.98333333 74.01134752 56.98333333 77 62 C77.5625 65.6875 77.5625 65.6875 77 69 C72.88144393 72.91274357 68.46256247 72.989035 63 73 C59.7678178 72.63288632 56.66120707 71.94369032 53.5 71.1875 C44.03944806 69.09833973 34.64042879 67.88487028 25 67 C25.86782104 67.39155273 25.86782104 67.39155273 26.75317383 67.79101562 C47.97975427 77.43811735 47.97975427 77.43811735 57 85 C58.161292 85.93770603 59.32276289 86.87519055 60.484375 87.8125 C80.63266841 104.32483089 80.63266841 104.32483089 82.30859375 116.18359375 C82.56812471 120.84728654 82.01206335 124.58583138 79.359375 128.4921875 C75.76056895 132.48396662 72.0754722 133.81336911 66.73925781 134.29321289 C55.40686385 134.45616903 45.01783981 132.50730528 34 130 C32.24252299 129.61305641 30.48471102 129.22763093 28.7265625 128.84375 C24.48032432 127.91322448 20.23909944 126.96250084 16 126 C23.27741624 131.26735421 31.08959651 135.35740564 39.06396484 139.44116211 C41.23616665 140.55540411 43.40141813 141.68236553 45.56640625 142.81054688 C53.14008148 146.72142453 60.49848244 150.13895381 68.64746094 152.71459961 C71 154 71 154 71.90722656 156.58032227 C71.9378418 157.37881592 71.96845703 158.17730957 72 159 C71.67 159.33 71.34 159.66 71 160 C62.8142013 159.73316534 55.9689524 156.9894081 48.4375 153.9375 C47.17928596 153.43439414 45.92106652 152.9313018 44.6628418 152.42822266 C36.17862456 149.00872041 27.91729978 145.32406451 19.86279297 140.99023438 C17.84124921 139.91561032 15.80022332 138.88598937 13.75390625 137.859375 C6.6260264 134.24735427 -0.21431307 130.42294582 -6.75 125.8125 C-7.31025879 125.42078613 -7.87051758 125.02907227 -8.44775391 124.62548828 C-12.31326438 121.80100994 -15.17771501 118.82726839 -18 115 C-18.125 112.25 -18.125 112.25 -17 110 C-5.3588247 104.10473311 13.58547473 111.57464079 25.72338867 114.05883789 C45.19001619 118.33499457 45.19001619 118.33499457 65 120 C64.7525 118.948125 64.505 117.89625 64.25 116.8125 C64.11078125 116.22082031 63.9715625 115.62914063 63.828125 115.01953125 C57.05010528 98.49011524 30.46417412 87.51659314 15 81 C5.77266212 77.38208694 -3.9789049 75.66591672 -13.68823242 73.83691406 C-14.68830322 73.64194336 -15.68837402 73.44697266 -16.71875 73.24609375 C-17.61529297 73.07779053 -18.51183594 72.9094873 -19.43554688 72.73608398 C-23.43799952 71.58724595 -27.60075109 69.47891092 -30 66 C-31.13967675 61.44129299 -31.59982558 58.43106394 -29.4375 54.1875 C-26.7815044 50.16687218 -23.39869682 48.63482385 -18.80078125 47.41796875 C-15.20562361 46.8814529 -11.73865664 46.98987204 -8.125 47.1875 C-6.92593018 47.25142944 -6.92593018 47.25142944 -5.70263672 47.31665039 C11.93989661 48.43745864 29.55574333 51.24612843 47 54 C39.3097329 47.30315646 31.56961214 40.73490099 23.44482422 34.56713867 C20.7580739 32.50344255 18.89950058 30.84925086 17 28 C17.375 25.8125 17.375 25.8125 18 24 C19.2065625 23.7834375 19.2065625 23.7834375 20.4375 23.5625 C22.92103706 23.25864751 22.92103706 23.25864751 24 22 C22.06402283 20.49800182 20.12624012 18.99842528 18.1875 17.5 C17.60524658 17.04802246 17.02299316 16.59604492 16.4230957 16.13037109 C13.55496554 13.91608893 10.67499915 11.7465121 7.6875 9.6953125 C6.6975 9.01210938 5.7075 8.32890625 4.6875 7.625 C3.78386719 7.01914062 2.88023437 6.41328125 1.94921875 5.7890625 C1.30597656 5.19867187 0.66273438 4.60828125 0 4 C0 2.68 0 1.36 0 0 Z " fill="#924EFE" transform="translate(142,11)"/>
<path d="M0 0 C0.92167969 -0.01393799 1.84335938 -0.02787598 2.79296875 -0.04223633 C10.64935124 0.01162242 19.67963745 1.22146614 25.9375 6.375 C30.10136736 12.23152786 30.52920197 16.79640463 30.46875 23.875 C30.4725769 24.86951172 30.47640381 25.86402344 30.48034668 26.88867188 C30.48305837 28.98308327 30.47574946 31.07752895 30.45898438 33.171875 C30.43756468 36.36535633 30.45881197 39.55658808 30.484375 42.75 C30.48173159 44.7916716 30.47660635 46.83334181 30.46875 48.875 C30.47684692 49.82310547 30.48494385 50.77121094 30.49328613 51.74804688 C30.40814235 57.81093724 29.49623619 61.42061749 25.9375 66.375 C16.2814515 74.14182162 3.49955273 74.18120044 -8.33984375 73.06640625 C-16.63294571 71.99295777 -23.70341024 70.3219682 -29.0625 63.375 C-31.00247618 57.90375288 -31.36974903 52.99723961 -31.36328125 47.22265625 C-31.36970894 45.93421059 -31.36970894 45.93421059 -31.37626648 44.61973572 C-31.3819821 42.81201047 -31.38253058 41.00426224 -31.37817383 39.1965332 C-31.3750132 36.4489781 -31.39850966 33.70250052 -31.42382812 30.95507812 C-31.42610153 29.19010551 -31.42680442 27.42513003 -31.42578125 25.66015625 C-31.434991 24.84845474 -31.44420074 24.03675323 -31.45368958 23.20045471 C-31.39924864 16.40378746 -30.21130056 10.79240063 -25.5625 5.5625 C-17.94305228 0.14096989 -9.01066405 0.08808888 0 0 Z M-7.0625 22.375 C-7.34141147 25.38763725 -7.34141147 25.38763725 -7.2578125 28.9140625 C-7.25136719 30.21601563 -7.24492188 31.51796875 -7.23828125 32.859375 C-7.22156929 34.23958595 -7.20463939 35.61979429 -7.1875 37 C-7.17747006 38.38801452 -7.16834423 39.77603589 -7.16015625 41.1640625 C-7.13651863 44.56788026 -7.10356867 47.97135506 -7.0625 51.375 C-3.84004976 53.10732681 -2.03882354 53.58524891 1.625 53.125 C2.41261719 53.03734375 3.20023438 52.9496875 4.01171875 52.859375 C4.64722656 52.69953125 5.28273438 52.5396875 5.9375 52.375 C8.22581108 47.79837784 7.12252705 41.40002708 7.125 36.375 C7.13724609 35.0653125 7.14949219 33.755625 7.16210938 32.40625 C7.16404297 31.1584375 7.16597656 29.910625 7.16796875 28.625 C7.17207764 27.47515625 7.17618652 26.3253125 7.18041992 25.140625 C7.22343969 22.23259039 7.22343969 22.23259039 4.9375 20.375 C2.56794614 20.05600485 2.56794614 20.05600485 -0.0625 20.125 C-0.949375 20.11984375 -1.83625 20.1146875 -2.75 20.109375 C-5.25650239 20.15447138 -5.25650239 20.15447138 -7.0625 22.375 Z " fill="#706DE3" transform="translate(134.0625,215.625)"/>
<path d="M0 0 C1.04285156 -0.020625 2.08570313 -0.04125 3.16015625 -0.0625 C11.21765812 -0.10273721 19.32075497 0.54924703 25.875 5.6875 C29.44586844 9.34764016 30.61848342 11.9196641 30.66552734 17.01513672 C30.67828705 17.95646454 30.69104675 18.89779236 30.70419312 19.86764526 C30.70641876 20.8781192 30.70864441 21.88859314 30.7109375 22.9296875 C30.7175943 23.97520782 30.7242511 25.02072815 30.73110962 26.09793091 C30.74122977 28.30859621 30.74592684 30.51929202 30.74560547 32.72998047 C30.74997496 36.10565756 30.7862924 39.48002325 30.82421875 42.85546875 C30.8300878 45.00520387 30.8340566 47.15494519 30.8359375 49.3046875 C30.85030853 50.31111298 30.86467957 51.31753845 30.87948608 52.35446167 C30.84074075 58.32143258 30.30225063 61.67952067 26.375 66.25 C19.59617706 72.72998852 9.81440792 73.22012903 0.875 73.5 C-7.84462433 73.24306816 -17.35818195 72.49428002 -24.625 67.25 C-28.28275523 63.31087898 -29.71911241 60.77302081 -29.94140625 55.47265625 C-29.98354248 54.49288818 -30.02567871 53.51312012 -30.0690918 52.50366211 C-30.1081665 51.45057861 -30.14724121 50.39749512 -30.1875 49.3125 C-30.2285083 48.23814697 -30.2695166 47.16379395 -30.31176758 46.05688477 C-30.55441373 39.26831851 -30.75164883 32.48026846 -30.8125 25.6875 C-30.82547119 24.93412354 -30.83844238 24.18074707 -30.85180664 23.40454102 C-30.86156166 17.65493128 -30.00010119 12.61517405 -27.0625 7.5625 C-19.47404954 0.36320085 -9.87783058 0.04777669 0 0 Z M-6.625 22.25 C-7.05945783 25.12687445 -7.05945783 25.12687445 -6.953125 28.5 C-6.94796875 29.7478125 -6.9428125 30.995625 -6.9375 32.28125 C-6.916875 33.5909375 -6.89625 34.900625 -6.875 36.25 C-6.86984375 37.5596875 -6.8646875 38.869375 -6.859375 40.21875 C-7.14237063 46.41848197 -7.14237063 46.41848197 -5.625 52.25 C-3.63999553 52.79539615 -3.63999553 52.79539615 -1.3125 53 C-0.53261719 53.09796875 0.24726563 53.1959375 1.05078125 53.296875 C3.69283658 53.24358985 5.07740253 52.48514388 7.375 51.25 C7.44908587 47.15666095 7.5035704 43.06358067 7.53979492 38.96972656 C7.55489358 37.57675378 7.57537444 36.18382862 7.60131836 34.79101562 C7.63765122 32.79057115 7.65311192 30.78978173 7.66796875 28.7890625 C7.6836792 27.58459473 7.69938965 26.38012695 7.71557617 25.13916016 C7.60318604 24.1857373 7.4907959 23.23231445 7.375 22.25 C4.37761059 20.25174039 3.74152492 19.97449602 0.375 20 C-0.305625 19.99484375 -0.98625 19.9896875 -1.6875 19.984375 C-3.94916007 20.15082397 -3.94916007 20.15082397 -6.625 22.25 Z " fill="#78D3FE" transform="translate(268.625,215.75)"/>
<path d="M0 0 C0.87591797 0.00322266 1.75183594 0.00644531 2.65429688 0.00976562 C3.52634766 -0.00634766 4.39839844 -0.02246094 5.296875 -0.0390625 C6.55467773 -0.0400293 6.55467773 -0.0400293 7.83789062 -0.04101562 C8.60544678 -0.04399658 9.37300293 -0.04697754 10.16381836 -0.05004883 C12.82269927 0.43214803 13.563373 1.20398176 15.21679688 3.32226562 C15.5977478 5.60331726 15.5977478 5.60331726 15.60498047 8.30932617 C15.61443695 9.32435715 15.62389343 10.33938812 15.63363647 11.38517761 C15.62756378 12.48203384 15.62149109 13.57889008 15.61523438 14.70898438 C15.61810455 15.83996048 15.62097473 16.97093658 15.62393188 18.13618469 C15.62597525 20.53277079 15.62042648 22.92937345 15.60791016 25.32592773 C15.59193544 28.97808681 15.60771195 32.62912659 15.62695312 36.28125 C15.62496928 38.61133055 15.6211227 40.94141042 15.61523438 43.27148438 C15.62130707 44.35821945 15.62737976 45.44495453 15.63363647 46.56462097 C15.56436881 54.11505414 14.79970571 60.00138284 10.02929688 66.13476562 C0.88109644 73.25003263 -11.58150398 73.10444402 -22.65039062 72.04882812 C-28.84271106 71.13970629 -34.05229244 69.56497423 -38.78320312 65.32226562 C-43.01924808 58.62658167 -42.96553505 52.38735904 -42.97070312 44.69726562 C-42.98294922 43.73046875 -42.99519531 42.76367188 -43.0078125 41.76757812 C-43.00974609 40.84460938 -43.01167969 39.92164063 -43.01367188 38.97070312 C-43.01778076 38.12685059 -43.02188965 37.28299805 -43.02612305 36.41357422 C-42.78320312 34.32226562 -42.78320312 34.32226562 -40.78320312 32.32226562 C-38.84375 32.06347656 -38.84375 32.06347656 -36.50195312 32.05664062 C-35.66019531 32.0540625 -34.8184375 32.05148438 -33.95117188 32.04882812 C-33.07074219 32.0565625 -32.1903125 32.06429687 -31.28320312 32.07226562 C-29.96255859 32.06066406 -29.96255859 32.06066406 -28.61523438 32.04882812 C-27.77347656 32.05140625 -26.93171875 32.05398437 -26.06445312 32.05664062 C-24.90526367 32.06002441 -24.90526367 32.06002441 -23.72265625 32.06347656 C-21.78320312 32.32226562 -21.78320312 32.32226562 -19.78320312 34.32226562 C-19.47645081 37.22194319 -19.27146942 40.04009741 -19.15820312 42.94726562 C-19.11953125 43.7490625 -19.08085938 44.55085938 -19.04101562 45.37695312 C-18.94666381 47.35834118 -18.86384098 49.34027208 -18.78320312 51.32226562 C-15.81320313 51.32226562 -12.84320313 51.32226562 -9.78320312 51.32226562 C-9.76338379 49.84838379 -9.74356445 48.37450195 -9.72314453 46.85595703 C-9.64723977 41.40281694 -9.5584995 35.949949 -9.46582031 30.49707031 C-9.42746786 28.13416912 -9.39262621 25.77120829 -9.36132812 23.40820312 C-9.31581346 20.01736083 -9.25779694 16.62693139 -9.19726562 13.23632812 C-9.18571442 12.17483551 -9.17416321 11.1133429 -9.16226196 10.01968384 C-9.14239227 9.03881805 -9.12252258 8.05795227 -9.10205078 7.04736328 C-9.08872711 6.18132477 -9.07540344 5.31528625 -9.06167603 4.42300415 C-8.3674965 -0.81373403 -4.18760744 0.03546088 0 0 Z " fill="#6C33D3" transform="translate(78.783203125,216.677734375)"/>
<path d="M0 0 C0.78890625 -0.00257813 1.5778125 -0.00515625 2.390625 -0.0078125 C3.21046875 -0.00007812 4.0303125 0.00765625 4.875 0.015625 C6.10476562 0.00402344 6.10476562 0.00402344 7.359375 -0.0078125 C8.54273438 -0.00394531 8.54273438 -0.00394531 9.75 0 C10.46929687 0.00225586 11.18859375 0.00451172 11.9296875 0.00683594 C13.875 0.265625 13.875 0.265625 16.875 2.265625 C17.25595093 4.59173584 17.25595093 4.59173584 17.26318359 7.53808594 C17.27264008 8.63973083 17.28209656 9.74137573 17.2918396 10.87640381 C17.28576691 12.07219055 17.27969421 13.26797729 17.2734375 14.5 C17.27630768 15.72591858 17.27917786 16.95183716 17.28213501 18.21490479 C17.28470485 21.48099552 17.27260418 24.74666113 17.25585938 28.01269531 C17.24618882 31.3184149 17.26914911 34.62400768 17.28515625 37.9296875 C17.28317282 40.45312724 17.2793271 42.97656635 17.2734375 45.5 C17.28254654 47.28153473 17.28254654 47.28153473 17.2918396 49.09906006 C17.23183438 56.16945188 16.91238877 61.22823623 11.6875 66.453125 C0.60679844 73.59402156 -12.77500187 73.23944781 -25.3203125 70.95703125 C-31.43920251 69.44861408 -35.58425511 66.57674234 -39.125 61.265625 C-40.17759482 58.10784054 -40.25416606 55.85367621 -40.2578125 52.5390625 C-40.25910156 51.4253125 -40.26039063 50.3115625 -40.26171875 49.1640625 C-40.25785156 48.00132812 -40.25398437 46.83859375 -40.25 45.640625 C-40.25386719 44.47015625 -40.25773438 43.2996875 -40.26171875 42.09375 C-40.26042969 40.98257813 -40.25914062 39.87140625 -40.2578125 38.7265625 C-40.25668457 37.70353027 -40.25555664 36.68049805 -40.25439453 35.62646484 C-40.125 33.265625 -40.125 33.265625 -39.125 32.265625 C-35.82061091 31.9879806 -32.50217866 32.03387512 -29.1875 32.015625 C-28.25486328 31.995 -27.32222656 31.974375 -26.36132812 31.953125 C-25.46994141 31.94796875 -24.57855469 31.9428125 -23.66015625 31.9375 C-22.42857788 31.92348145 -22.42857788 31.92348145 -21.17211914 31.90917969 C-20.15879517 32.08562012 -20.15879517 32.08562012 -19.125 32.265625 C-16.70979868 35.88842698 -16.94275674 37.54131637 -17.0625 41.828125 C-17.34680565 46.20745584 -17.34680565 46.20745584 -16.125 50.265625 C-13.485 50.265625 -10.845 50.265625 -8.125 50.265625 C-8.11913376 49.66871857 -8.11326752 49.07181213 -8.10722351 48.45681763 C-8.04343083 42.26012002 -7.95904888 36.06394861 -7.86254883 29.86767578 C-7.8292355 27.5532931 -7.80122378 25.23882792 -7.77856445 22.92431641 C-7.74513623 19.60283144 -7.6928265 16.28210698 -7.63671875 12.9609375 C-7.62713387 11.40150925 -7.62713387 11.40150925 -7.61735535 9.81057739 C-7.59756119 8.84973236 -7.57776703 7.88888733 -7.55737305 6.89892578 C-7.54626999 6.05065216 -7.53516693 5.20237854 -7.52372742 4.32839966 C-7.39214737 3.64768402 -7.26056732 2.96696838 -7.125 2.265625 C-4.07526315 0.2324671 -3.43543132 0.0107742 0 0 Z " fill="#75AFF5" transform="translate(212.125,216.734375)"/>
<path d="M0 0 C16.56119792 10.12239583 16.56119792 10.12239583 19 15 C19.3125 18.4375 19.3125 18.4375 19 22 C14.92913 25.9391992 10.4327207 25.9890949 5 26 C1.7678178 25.63288632 -1.33879293 24.94369032 -4.5 24.1875 C-13.96055194 22.09833973 -23.35957121 20.88487028 -33 20 C-32.42145264 20.26103516 -31.84290527 20.52207031 -31.24682617 20.79101562 C-10.02024573 30.43811735 -10.02024573 30.43811735 -1 38 C0.161292 38.93770603 1.32276289 39.87519055 2.484375 40.8125 C22.63266841 57.32483089 22.63266841 57.32483089 24.30859375 69.18359375 C24.56831836 73.8507663 23.98386641 77.54986682 21.3984375 81.4921875 C17.85995375 85.30742417 13.59772585 86.88587672 8.5 87.25 C7.675 87.1675 6.85 87.085 6 87 C7 85 7 85 8.92578125 84.32421875 C9.71339844 84.11410156 10.50101563 83.90398437 11.3125 83.6875 C15.58617911 82.32861952 17.74491127 81.04036731 20 77 C21.87954178 71.48667746 20.21835239 67.1357654 18 62 C10.01644104 46.99090916 -10.95713254 31.34762249 -27 26 C-27 25.34 -27 24.68 -27 24 C-27.66 23.896875 -28.32 23.79375 -29 23.6875 C-32.83841009 22.80786436 -36.33096691 21.43030104 -40 20 C-40 19.34 -40 18.68 -40 18 C-26.15585995 17.47794444 -12.72854911 18.88678383 0.75 22.125 C4.18035515 22.90833014 7.04482073 23.12044778 10.5625 22.625 C11.40941406 22.51414062 12.25632813 22.40328125 13.12890625 22.2890625 C13.74636719 22.19367188 14.36382812 22.09828125 15 22 C15.77802187 19.6984589 15.77802187 19.6984589 16 17 C14.62831762 14.80961577 14.62831762 14.80961577 13 13 C13 12.34 13 11.68 13 11 C12.17242187 10.60167969 12.17242187 10.60167969 11.328125 10.1953125 C8.72960475 8.86117291 6.24877045 7.38741369 3.75 5.875 C2.85796875 5.33617187 1.9659375 4.79734375 1.046875 4.2421875 C0.37140625 3.83226562 -0.3040625 3.42234375 -1 3 C-0.67 2.01 -0.34 1.02 0 0 Z " fill="#9162FB" transform="translate(200,58)"/>
<path d="M0 0 C5.38431517 0.61902919 10.6650002 1.45346541 15.97265625 2.55859375 C16.69940048 2.70780777 17.42614471 2.85702179 18.1749115 3.01075745 C19.69870663 3.32442671 21.22218776 3.63962501 22.74536133 3.95629883 C25.05918353 4.43681127 27.37421626 4.91112198 29.68945312 5.38476562 C31.17976377 5.69233899 32.67000073 6.00026967 34.16015625 6.30859375 C34.84263931 6.44825058 35.52512238 6.58790741 36.22828674 6.73179626 C40.55548462 7.63622194 44.76609861 8.74208932 49 10 C49 10.33 49 10.66 49 11 C43.41048743 11.20810285 38.4535776 10.44943367 33.00390625 9.25 C32.17036118 9.07243164 31.3368161 8.89486328 30.47801208 8.71191406 C27.83802771 8.14793437 25.20029245 7.57413468 22.5625 7 C20.76381185 6.61393062 18.9649849 6.22850727 17.16601562 5.84375 C12.77570292 4.9032989 8.38737891 3.95404003 4 3 C11.27741624 8.26735421 19.08959651 12.35740564 27.06396484 16.44116211 C29.23616665 17.55540411 31.40141813 18.68236553 33.56640625 19.81054688 C41.14008148 23.72142453 48.49848244 27.13895381 56.64746094 29.71459961 C59 31 59 31 59.90722656 33.58032227 C59.9378418 34.37881592 59.96845703 35.17730957 60 36 C59.67 36.33 59.34 36.66 59 37 C50.81412718 36.73316293 43.96907637 33.98926615 36.4375 30.9375 C35.18222372 30.43583878 33.9269339 29.93421143 32.67163086 29.43261719 C23.51895993 25.74551487 14.67763928 21.68848615 6 17 C4.71776918 16.31710477 3.4352126 15.63482088 2.15234375 14.953125 C-0.9085124 13.32034792 -3.95764247 11.66704522 -7 10 C-4.65050139 9.16744888 -3.43585279 8.83765362 -1.0625 9.72167969 C-0.381875 10.11774414 0.29875 10.51380859 1 10.921875 C1.79124268 11.3653125 2.58248535 11.80875 3.39770508 12.265625 C4.68584106 13.00039062 4.68584106 13.00039062 6 13.75 C17.93075252 20.29779307 30.34118086 25.13255226 43.06494141 29.8984375 C44.87900986 30.57927903 46.68944624 31.27000049 48.49365234 31.9765625 C51.48422578 33.14308374 53.75821742 34 57 34 C56.38898438 33.76667969 55.77796875 33.53335938 55.1484375 33.29296875 C40.97200706 27.64236338 27.33381479 20.52561659 14 13.125 C13.37254883 12.78049805 12.74509766 12.43599609 12.09863281 12.08105469 C1.86689914 6.29109058 1.86689914 6.29109058 0.125 1.6875 C0.08375 1.130625 0.0425 0.57375 0 0 Z " fill="#8C6EF9" transform="translate(154,134)"/>
<path d="M0 0 C3.7626903 0.54967997 6.03933271 1.46708489 9.0625 3.75 C15.07643918 8.13365446 21.32516775 12.12310121 27.60375977 16.11621094 C34.82423107 20.75597341 42.21272104 25.59085467 48 32 C48.375 34.625 48.375 34.625 48 37 C47.34 37.66 46.68 38.32 46 39 C46.78246094 39.47050781 47.56492188 39.94101562 48.37109375 40.42578125 C49.38300781 41.04839844 50.39492187 41.67101563 51.4375 42.3125 C52.44683594 42.92738281 53.45617187 43.54226562 54.49609375 44.17578125 C57 46 57 46 58 49 C53.11963459 47.32508169 49.00847052 44.63208039 44.6875 41.875 C43.94693359 41.40707031 43.20636719 40.93914063 42.44335938 40.45703125 C40.62658032 39.30835804 38.81296963 38.15467631 37 37 C37.495 36.01 37.495 36.01 38 35 C40.0625 34.375 40.0625 34.375 42 34 C42 34.66 42 35.32 42 36 C42.99 36 43.98 36 45 36 C43.75023244 32.34683329 43.32901247 31.21934164 40 29 C40 28.34 40 27.68 40 27 C39.443125 26.7421875 38.88625 26.484375 38.3125 26.21875 C34.78853137 24.36152329 31.66612946 21.97928827 28.4375 19.65625 C26.33742894 18.22927864 24.29909181 17.06439436 22 16 C22 15.34 22 14.68 22 14 C20.68 14 19.36 14 18 14 C18.99 14.66 19.98 15.32 21 16 C21 16.66 21 17.32 21 18 C21.66 18 22.32 18 23 18 C23 18.66 23 19.32 23 20 C20.30043588 18.71773479 17.90718037 17.31301179 15.50390625 15.5390625 C14.86259766 15.06726562 14.22128906 14.59546875 13.56054688 14.109375 C12.57151367 13.37460937 12.57151367 13.37460937 11.5625 12.625 C10.90701172 12.14289062 10.25152344 11.66078125 9.57617188 11.1640625 C5.98871232 8.51574732 2.4605409 5.81377314 -1 3 C-0.67 2.01 -0.34 1.02 0 0 Z " fill="#9D64FA" transform="translate(142,11)"/>
<path d="M0 0 C0.87591797 0.00322266 1.75183594 0.00644531 2.65429688 0.00976562 C3.52634766 -0.00634766 4.39839844 -0.02246094 5.296875 -0.0390625 C6.55467773 -0.0400293 6.55467773 -0.0400293 7.83789062 -0.04101562 C8.60544678 -0.04399658 9.37300293 -0.04697754 10.16381836 -0.05004883 C12.82363365 0.43231748 13.56447349 1.20153693 15.21679688 3.32226562 C15.59101868 5.61677551 15.59101868 5.61677551 15.58911133 8.34106445 C15.59845451 9.87329399 15.59845451 9.87329399 15.60798645 11.43647766 C15.5987767 12.539608 15.58956696 13.64273834 15.58007812 14.77929688 C15.58057663 15.91501633 15.58107513 17.05073578 15.58158875 18.22087097 C15.57924646 20.62586209 15.56950894 23.03085557 15.55297852 25.43579102 C15.52945695 29.10976217 15.53240799 32.78300429 15.5390625 36.45703125 C15.53348332 38.79362411 15.52637194 41.13021391 15.51757812 43.46679688 C15.51894524 45.11238335 15.51894524 45.11238335 15.52033997 46.79121399 C15.47203503 52.01567451 15.33558937 56.44413997 13.21679688 61.32226562 C12.55679688 61.32226562 11.89679688 61.32226562 11.21679688 61.32226562 C11.37978271 60.4114624 11.54276855 59.50065918 11.71069336 58.56225586 C12.46912315 53.21913427 12.34020478 47.86813631 12.31445312 42.48242188 C12.3123307 40.79928139 12.3123307 40.79928139 12.31016541 39.08213806 C12.30459088 35.51631955 12.29204304 31.950565 12.27929688 28.38476562 C12.27427858 25.95963633 12.26971625 23.53450604 12.265625 21.109375 C12.25462978 15.18031409 12.2373827 9.25130068 12.21679688 3.32226562 C5.94679688 2.99226562 -0.32320313 2.66226563 -6.78320312 2.32226562 C-6.78320312 17.83226562 -6.78320312 33.34226563 -6.78320312 49.32226562 C-7.44320312 49.32226562 -8.10320312 49.32226562 -8.78320312 49.32226562 C-8.83379473 42.66539749 -8.86889072 36.00857868 -8.89306641 29.3515625 C-8.90314171 27.08559313 -8.91680231 24.81963682 -8.93408203 22.55371094 C-8.95826323 19.30205062 -8.96967075 16.05056175 -8.97851562 12.79882812 C-8.9888382 11.78108307 -8.99916077 10.76333801 -9.00979614 9.7147522 C-9.0099472 8.77392792 -9.01009827 7.83310364 -9.01025391 6.86376953 C-9.01469513 6.0332608 -9.01913635 5.20275208 -9.02371216 4.34707642 C-8.40782735 -0.83796873 -4.08745051 0.03461274 0 0 Z " fill="#7352D5" transform="translate(78.783203125,216.677734375)"/>
<path d="M0 0 C0.83926025 0.04777588 1.67852051 0.09555176 2.54321289 0.14477539 C21.00551295 1.30054396 21.00551295 1.30054396 27 4.6875 C11.49256238 3.78322014 11.49256238 3.78322014 5.625 3.125 C-2.88753481 2.23648627 -10.74136762 1.44723623 -17.875 6.875 C-20.27978396 9.58407549 -20.27978396 9.58407549 -20.5 13.25 C-19.96976948 16.89533479 -19.44438371 18.04625317 -17 20.6875 C-10.28087581 23.87494032 -2.28796904 24.6231059 5 25.6875 C5 26.0175 5 26.3475 5 26.6875 C-4.29185903 27.12533629 -13.26966167 26.99873683 -21.125 21.5 C-23.54273853 17.87339221 -24.41312585 15.04184651 -24 10.6875 C-22.64283913 6.47359929 -20.79053134 4.19209447 -17.0625 1.8125 C-11.18983975 -0.34480376 -6.16478521 -0.3672352 0 0 Z " fill="#AA4BF7" transform="translate(135,58.3125)"/>
<path d="M0 0 C5.38431517 0.61902919 10.6650002 1.45346541 15.97265625 2.55859375 C16.69940048 2.70780777 17.42614471 2.85702179 18.1749115 3.01075745 C19.69870663 3.32442671 21.22218776 3.63962501 22.74536133 3.95629883 C25.05918353 4.43681127 27.37421626 4.91112198 29.68945312 5.38476562 C31.17976377 5.69233899 32.67000073 6.00026967 34.16015625 6.30859375 C34.84263931 6.44825058 35.52512238 6.58790741 36.22828674 6.73179626 C40.55548462 7.63622194 44.76609861 8.74208932 49 10 C49 10.33 49 10.66 49 11 C43.41048743 11.20810285 38.4535776 10.44943367 33.00390625 9.25 C32.17036118 9.07243164 31.3368161 8.89486328 30.47801208 8.71191406 C27.83802771 8.14793437 25.20029245 7.57413468 22.5625 7 C20.76381185 6.61393062 18.9649849 6.22850727 17.16601562 5.84375 C12.77570292 4.9032989 8.38737891 3.95404003 4 3 C9.7137741 6.90955645 15.49967631 10.53391253 21.5625 13.875 C22.28501953 14.2771875 23.00753906 14.679375 23.75195312 15.09375 C25.49943703 16.06586025 27.24944295 17.03343476 29 18 C29 18.66 29 19.32 29 20 C23.90903111 18.51248253 19.58002601 16.29174411 15 13.6875 C14.31421875 13.30916016 13.6284375 12.93082031 12.921875 12.54101562 C1.87444061 6.31102161 1.87444061 6.31102161 0.125 1.6875 C0.08375 1.130625 0.0425 0.57375 0 0 Z " fill="#9461FB" transform="translate(154,134)"/>
<path d="M0 0 C6.85770584 0.53575827 13.25108117 1.78065427 18.75 6.15234375 C23.01584088 12.08350424 23.29345412 16.71737007 23.140625 23.8984375 C23.13496521 24.90955093 23.12930542 25.92066437 23.12347412 26.9624176 C23.10119521 30.17205398 23.05101377 33.38054834 23 36.58984375 C22.97992407 38.77407235 22.96167522 40.95831855 22.9453125 43.14257812 C22.90135848 48.4795522 22.8345318 53.81586636 22.75 59.15234375 C22.09 59.15234375 21.43 59.15234375 20.75 59.15234375 C20.42 59.81234375 20.09 60.47234375 19.75 61.15234375 C19.75666183 60.57684784 19.76332367 60.00135193 19.77018738 59.40841675 C19.83667725 53.40612385 19.88185721 47.403936 19.91479492 41.40136719 C19.92985964 39.16271717 19.95031533 36.92409656 19.97631836 34.68554688 C20.01280283 31.46346773 20.02974983 28.24177964 20.04296875 25.01953125 C20.05845261 24.02243134 20.07393646 23.02533142 20.08988953 21.99801636 C20.09118639 16.61509683 19.80016351 12.79801363 16.75 8.15234375 C11.17021748 3.25972656 2.78755233 2.96766993 -4.25 2.15234375 C-2.25 0.15234375 -2.25 0.15234375 0 0 Z " fill="#768DE9" transform="translate(141.25,215.84765625)"/>
<path d="M0 0 C9.28560016 6.297415 17.29955506 14.17150906 21 25 C21.98523088 30.32722185 21.39435462 34.92394509 18.3984375 39.4921875 C14.85995375 43.30742417 10.59772585 44.88587672 5.5 45.25 C4.675 45.1675 3.85 45.085 3 45 C4 43 4 43 5.92578125 42.32421875 C6.71339844 42.11410156 7.50101563 41.90398437 8.3125 41.6875 C12.58617911 40.32861952 14.74491127 39.04036731 17 35 C18.84793462 29.57939178 17.32054577 25.02645294 15 20 C11.87703762 14.79042579 8.10636774 10.97626279 3.71484375 6.88085938 C2.42360931 5.64009097 1.20562439 4.32410817 0 3 C0 2.01 0 1.02 0 0 Z " fill="#847EFB" transform="translate(203,100)"/>
<path d="M0 0 C2.33944736 0.28730055 4.6739143 0.61936779 7 1 C7 1.66 7 2.32 7 3 C4.03 2.505 4.03 2.505 1 2 C1.3619041 4.66174626 1.81154322 5.81573115 3.7578125 7.71875 C4.53898438 8.3065625 5.32015625 8.894375 6.125 9.5 C7.01832031 10.18707031 7.91164062 10.87414063 8.83203125 11.58203125 C9.87746094 12.37996094 10.92289063 13.17789063 12 14 C14.61469698 16.04935709 17.21414641 18.11748468 19.8125 20.1875 C20.44623535 20.68636719 21.0799707 21.18523438 21.73291016 21.69921875 C26.71681333 25.65791448 31.10505195 29.21010389 34 35 C30.04 34.34 26.08 33.68 22 33 C22 32.34 22 31.68 22 31 C23.98 31 25.96 31 28 31 C20.3097329 24.30315646 12.56961214 17.73490099 4.44482422 11.56713867 C1.7580739 9.50344255 -0.10049942 7.84925086 -2 5 C-1.48275862 1.48275862 -1.48275862 1.48275862 0 0 Z " fill="#9A65FA" transform="translate(161,34)"/>
<path d="M0 0 C0.66 0.33 1.32 0.66 2 1 C2.07613173 8.86533399 2.12863448 16.73057276 2.16479492 24.59619141 C2.17817551 27.27149721 2.20033385 29.94632149 2.22631836 32.62158203 C2.26275084 36.46913751 2.27973828 40.31636586 2.29296875 44.1640625 C2.30845261 45.35802643 2.32393646 46.55199036 2.33988953 47.78213501 C2.34107844 53.66241149 2.3381333 58.04862811 -1 63 C-1.99 63 -2.98 63 -4 63 C-3.5155542 62.11175537 -3.0311084 61.22351074 -2.53198242 60.30834961 C-0.17587971 54.77361584 -0.52011743 48.98931528 -0.48828125 43.06640625 C-0.46135445 41.21679543 -0.46135445 41.21679543 -0.43388367 39.32981873 C-0.37988045 35.4074135 -0.34591579 31.4851293 -0.3125 27.5625 C-0.28094323 24.89643863 -0.24482796 22.23046315 -0.20898438 19.56445312 C-0.1241594 13.04307728 -0.05576709 6.52168559 0 0 Z " fill="#81C8F9" transform="translate(227,218)"/>
<path d="M0 0 C5.93923296 1.00307046 10.11370387 2.31034782 15 6 C16.70557689 7.19145563 18.41414388 8.37863752 20.125 9.5625 C21.75440139 10.70206577 23.379663 11.8475821 25 13 C26.14082031 13.78697266 26.14082031 13.78697266 27.3046875 14.58984375 C27.86414063 15.05519531 28.42359375 15.52054688 29 16 C29 16.66 29 17.32 29 18 C29.66 18 30.32 18 31 18 C31 18.66 31 19.32 31 20 C31.66 20 32.32 20 33 20 C33 20.66 33 21.32 33 22 C33.99 22.33 34.98 22.66 36 23 C40 29.05714286 40 29.05714286 40 34 C39.34 34 38.68 34 38 34 C38 34.66 38 35.32 38 36 C37.01 35.67 36.02 35.34 35 35 C35.66 34.67 36.32 34.34 37 34 C36.7525 32.948125 36.505 31.89625 36.25 30.8125 C36.11078125 30.22082031 35.9715625 29.62914063 35.828125 29.01953125 C30.70990203 16.53782711 11.63132405 6.59570506 0 1 C0 0.67 0 0.34 0 0 Z " fill="#8372FD" transform="translate(170,97)"/>
<path d="M0 0 C16.56119792 10.12239583 16.56119792 10.12239583 19 15 C19.3125 18.4375 19.3125 18.4375 19 22 C14.94589934 25.92569024 10.4191425 26.0315525 5 26 C1.92749657 25.54749581 -1.02045596 24.87083292 -4 24 C-4 23.67 -4 23.34 -4 23 C-3.04738281 23.01160156 -2.09476563 23.02320312 -1.11328125 23.03515625 C0.14097656 23.04417969 1.39523438 23.05320312 2.6875 23.0625 C3.92886719 23.07410156 5.17023438 23.08570312 6.44921875 23.09765625 C9.46235454 23.01478673 12.08275339 22.70839449 15 22 C15.77802187 19.6984589 15.77802187 19.6984589 16 17 C14.62831762 14.80961577 14.62831762 14.80961577 13 13 C13 12.34 13 11.68 13 11 C12.44828125 10.73445313 11.8965625 10.46890625 11.328125 10.1953125 C8.72960475 8.86117291 6.24877045 7.38741369 3.75 5.875 C2.85796875 5.33617187 1.9659375 4.79734375 1.046875 4.2421875 C0.37140625 3.83226562 -0.3040625 3.42234375 -1 3 C-0.67 2.01 -0.34 1.02 0 0 Z " fill="#8177F9" transform="translate(200,58)"/>
<path d="M0 0 C0.55349121 0.25168945 1.10698242 0.50337891 1.67724609 0.76269531 C4.24212516 1.92743332 6.80855035 3.08872704 9.375 4.25 C10.24511719 4.64574219 11.11523438 5.04148438 12.01171875 5.44921875 C12.88183594 5.84238281 13.75195312 6.23554688 14.6484375 6.640625 C15.96279785 7.23713867 15.96279785 7.23713867 17.30371094 7.84570312 C20.83227586 9.35630209 24.44350734 10.60282845 28.08837891 11.80371094 C30 13 30 13 30.83740234 15.56347656 C30.89105957 16.3675293 30.9447168 17.17158203 31 18 C30.67 18.33 30.34 18.66 30 19 C28.00390625 18.94921875 28.00390625 18.94921875 25.5625 18.6875 C24.35787109 18.56955078 24.35787109 18.56955078 23.12890625 18.44921875 C21 18 21 18 19 16 C21.97 16 24.94 16 28 16 C27.319375 15.731875 26.63875 15.46375 25.9375 15.1875 C17.04304674 11.59186996 8.53669477 7.36584771 0 3 C0 2.01 0 1.02 0 0 Z " fill="#8B72FA" transform="translate(183,152)"/>
<path d="M0 0 C-3.38317487 0.97591583 -5.5657338 0.85856655 -9 0 C-9 -0.66 -9 -1.32 -9 -2 C-10.60495567 -1.88557539 -12.20898119 -1.75805306 -13.8125 -1.625 C-14.70582031 -1.55539063 -15.59914062 -1.48578125 -16.51953125 -1.4140625 C-19.24398499 -1.13354964 -19.24398499 -1.13354964 -22 1 C-20.65711236 5.28691056 -19.01855938 7.11387472 -15.375 9.6875 C-13.88446816 10.74779947 -12.41662024 11.84280199 -11 13 C-11 13.66 -11 14.32 -11 15 C-16.77499672 12.99308625 -20.93855652 9.52201955 -25 5 C-26.0625 1.5 -26.0625 1.5 -26 -1 C-18.08334416 -6.49767767 -8.22397478 -3.63752731 0 0 Z " fill="#A950F7" transform="translate(150,123)"/>
<path d="M0 0 C7.29996245 -0.41935955 13.12507051 0.60536164 20 3 C20.75152344 3.22816406 21.50304687 3.45632812 22.27734375 3.69140625 C28.18124214 5.50719222 33.54587923 8.11922222 39 11 C39 11.33 39 11.66 39 12 C34.35364728 11.68320322 30.76803516 10.56774252 26.5 8.6875 C18.00649017 4.99234125 9.0932321 2.72547099 0 1 C0 0.67 0 0.34 0 0 Z " fill="#9E5DF8" transform="translate(134,85)"/>
<path d="M0 0 C0.33 0.99 0.66 1.98 1 3 C1.66 3.33 2.32 3.66 3 4 C2.34 4.66 1.68 5.32 1 6 C2.17369141 6.70576172 2.17369141 6.70576172 3.37109375 7.42578125 C4.38300781 8.04839844 5.39492187 8.67101563 6.4375 9.3125 C7.44683594 9.92738281 8.45617187 10.54226562 9.49609375 11.17578125 C12 13 12 13 13 16 C8.11963459 14.32508169 4.00847052 11.63208039 -0.3125 8.875 C-1.05306641 8.40707031 -1.79363281 7.93914063 -2.55664062 7.45703125 C-4.37341968 6.30835804 -6.18703037 5.15467631 -8 4 C-7.67 3.34 -7.34 2.68 -7 2 C-4.9375 1.375 -4.9375 1.375 -3 1 C-3 1.66 -3 2.32 -3 3 C-2.01 3 -1.02 3 0 3 C0 2.01 0 1.02 0 0 Z " fill="#8F6CFD" transform="translate(187,44)"/>
<path d="M0 0 C5.96557297 0.47530581 10.42731545 3.10580117 15.5625 5.9375 C22.60358293 9.84609877 22.60358293 9.84609877 30 13 C30 13.33 30 13.66 30 14 C24.25862051 13.49912445 20.07034543 11.86351564 15 9.1875 C13.99066406 8.67219727 13.99066406 8.67219727 12.9609375 8.14648438 C8.56792344 5.88637193 4.2742197 3.47659866 0 1 C0 0.67 0 0.34 0 0 Z " fill="#9D62FB" transform="translate(147,143)"/>
<path d="M0 0 C5.93923296 1.00307046 10.11370387 2.31034782 15 6 C16.78856998 7.25442691 18.58045406 8.50413711 20.375 9.75 C21.91712922 10.83267479 23.45895312 11.9157852 25 13 C23.3203125 13.7265625 23.3203125 13.7265625 21 14 C18.5546875 12.5234375 18.5546875 12.5234375 15.875 10.375 C10.83858959 6.51126657 5.77454858 3.60543623 0 1 C0 0.67 0 0.34 0 0 Z " fill="#8D68FA" transform="translate(170,97)"/>
<path d="M0 0 C6.56842939 3.36961981 12.29563235 7.32053056 18 12 C17.67 13.32 17.34 14.64 17 16 C16.45472656 15.49210937 15.90945312 14.98421875 15.34765625 14.4609375 C10.19098576 9.7538229 4.92212458 5.69607775 -1 2 C-0.67 1.34 -0.34 0.68 0 0 Z " fill="#8C6EFB" transform="translate(185,87)"/>
<path d="M0 0 C5.64063738 3.54179556 9.94979456 6.89958912 13 13 C7.06 12.01 7.06 12.01 1 11 C1 10.34 1 9.68 1 9 C2.98 9 4.96 9 7 9 C6.4946875 8.60167969 5.989375 8.20335938 5.46875 7.79296875 C4.49421875 6.99826172 4.49421875 6.99826172 3.5 6.1875 C2.52546875 5.40439453 2.52546875 5.40439453 1.53125 4.60546875 C0 3 0 3 0 0 Z " fill="#8C67FC" transform="translate(182,56)"/>
<path d="M0 0 C0.99 0.33 1.98 0.66 3 1 C2.67 1.66 2.34 2.32 2 3 C1.87209389 4.48504216 1.79801037 5.97495616 1.75390625 7.46484375 C1.72103516 8.34720703 1.68816406 9.22957031 1.65429688 10.13867188 C1.59323101 12.00053108 1.53592276 13.86251743 1.48242188 15.72460938 C1.44826172 16.60826172 1.41410156 17.49191406 1.37890625 18.40234375 C1.3538501 19.21179443 1.32879395 20.02124512 1.30297852 20.85522461 C1 23 1 23 -1 26 C-1.02886751 21.85418113 -1.04675327 17.70838784 -1.0625 13.5625 C-1.07087891 12.37849609 -1.07925781 11.19449219 -1.08789062 9.97460938 C-1.09111328 8.84990234 -1.09433594 7.72519531 -1.09765625 6.56640625 C-1.10289307 5.52427979 -1.10812988 4.48215332 -1.11352539 3.40844727 C-1 1 -1 1 0 0 Z " fill="#7794EC" transform="translate(173,249)"/>
<path d="M0 0 C0.99 0.33 1.98 0.66 3 1 C-4.47754826 8.90483673 -11.5245852 10.71944569 -22.2265625 11.12109375 C-24.82135624 11.1244462 -27.40698688 11.09187842 -30 11 C-30 10.67 -30 10.34 -30 10 C-29.04480469 9.89042969 -28.08960938 9.78085937 -27.10546875 9.66796875 C-13.10048422 8.63306131 -13.10048422 8.63306131 -1.3125 2.3125 C-0.879375 1.549375 -0.44625 0.78625 0 0 Z " fill="#6647D1" transform="translate(89,278)"/>
<path d="M0 0 C0.66 0 1.32 0 2 0 C2.020625 0.70125 2.04125 1.4025 2.0625 2.125 C3.82265742 7.52281608 8.62459176 10.24977732 13.4375 12.875 C14.283125 13.24625 15.12875 13.6175 16 14 C14.4375 14.75 14.4375 14.75 12 15 C7.74705131 12.94947117 3.85596066 10.84456243 1 7 C0.25 3.25 0.25 3.25 0 0 Z " fill="#6A60DD" transform="translate(104,272)"/>
<path d="M0 0 C0 2 0 2 -1.4609375 3.5078125 C-2.09257813 4.04148438 -2.72421875 4.57515625 -3.375 5.125 C-4.00148438 5.66382813 -4.62796875 6.20265625 -5.2734375 6.7578125 C-7 8 -7 8 -9 8 C-9.12375 9.11375 -9.2475 10.2275 -9.375 11.375 C-10 15 -10 15 -12 17 C-11.52965429 10.17998721 -10.18667392 5.89697629 -4.9375 1.125 C-3 0 -3 0 0 0 Z " fill="#7463DD" transform="translate(115,219)"/>
<path d="M0 0 C2.31 0.66 4.62 1.32 7 2 C7.38218767 3.65614657 7.71395102 5.32457024 8 7 C7.67 7.33 7.34 7.66 7 8 C5.00390625 7.94921875 5.00390625 7.94921875 2.5625 7.6875 C1.75941406 7.60886719 0.95632812 7.53023437 0.12890625 7.44921875 C-2 7 -2 7 -4 5 C-1.03 5 1.94 5 5 5 C3.68 4.34 2.36 3.68 1 3 C0.67 2.01 0.34 1.02 0 0 Z " fill="#8079F7" transform="translate(206,163)"/>
<path d="M0 0 C0.33 0.99 0.66 1.98 1 3 C-2.39388274 8.75484464 -7.90195244 10.96731748 -14 13 C-15.56118428 13.06740865 -17.1250252 13.08514456 -18.6875 13.0625 C-19.89986328 13.04896484 -19.89986328 13.04896484 -21.13671875 13.03515625 C-22.05904297 13.01775391 -22.05904297 13.01775391 -23 13 C-23 12.67 -23 12.34 -23 12 C-22.27554688 11.89042969 -21.55109375 11.78085937 -20.8046875 11.66796875 C-15.33834783 10.77148904 -10.87892257 9.75221273 -6 7 C-5.34 7 -4.68 7 -4 7 C-3.34 5.35 -2.68 3.7 -2 2 C-1.34 2 -0.68 2 0 2 C0 1.34 0 0.68 0 0 Z " fill="#6E84E7" transform="translate(162,275)"/>
<path d="M0 0 C0.33 1.32 0.66 2.64 1 4 C-3.77357872 6.71391278 -7.34388537 8.56561146 -13 8 C-12 6 -12 6 -10.0390625 5.25390625 C-8.43518997 4.7945447 -6.83102466 4.3362041 -5.2265625 3.87890625 C-2.84974501 2.94068882 -1.65465684 1.91619938 0 0 Z " fill="#7C78FB" transform="translate(219,137)"/>
<path d="M0 0 C0.33 0.99 0.66 1.98 1 3 C1.66 3.33 2.32 3.66 3 4 C-3.4 6.21538462 -3.4 6.21538462 -6.4375 5.125 C-6.953125 4.75375 -7.46875 4.3825 -8 4 C-7.67 3.34 -7.34 2.68 -7 2 C-4.9375 1.375 -4.9375 1.375 -3 1 C-3 1.66 -3 2.32 -3 3 C-2.01 3 -1.02 3 0 3 C0 2.01 0 1.02 0 0 Z " fill="#8A5EFB" transform="translate(187,44)"/>
<path d="M0 0 C3.63 1.98 7.26 3.96 11 6 C11 6.66 11 7.32 11 8 C6.97488434 6.78310457 3.40742883 5.50546238 0 3 C0 2.01 0 1.02 0 0 Z " fill="#9668FB" transform="translate(172,146)"/>
<path d="M0 0 C0.66 0.99 1.32 1.98 2 3 C2.87072072 4.23220174 3.74584102 5.46130459 4.625 6.6875 C5.07101563 7.31011719 5.51703125 7.93273437 5.9765625 8.57421875 C6.31429687 9.04472656 6.65203125 9.51523437 7 10 C3.87964445 9.40220557 3.0464612 9.0464612 0.6875 6.6875 C-1 4 -1 4 -0.75 1.6875 C-0.5025 1.130625 -0.255 0.57375 0 0 Z " fill="#769CEF" transform="translate(174,274)"/>
<path d="M0 0 C2.96175123 0.61277612 4.38058783 1.25372522 7 3 C7 3.66 7 4.32 7 5 C7.66 5 8.32 5 9 5 C9 5.66 9 6.32 9 7 C5.18315774 5.44499019 2.80804268 2.96404505 0 0 Z " fill="#9A64FA" transform="translate(156,24)"/>
<path d="M0 0 C2.875 0.25 2.875 0.25 6 1 C7.375 3.0625 7.375 3.0625 8 5 C4.62496331 3.8141763 2.35277269 2.72426311 0 0 Z " fill="#A358FA" transform="translate(139,138)"/>
</svg>
